<svg id="Layer_1_copy" data-name="Layer 1 copy" xmlns="http://www.w3.org/2000/svg" xmlns:xlink="http://www.w3.org/1999/xlink" viewBox="0 0 167.26 167.26"><defs><style>.cls-1{fill:url(#linear-gradient);}.cls-2{fill:none;stroke:#fff;stroke-linecap:round;stroke-miterlimit:10;stroke-width:6px;}</style><linearGradient id="linear-gradient" x1="31.92" y1="-5.93" x2="108.63" y2="126.93" gradientUnits="userSpaceOnUse"><stop offset="0.09" stop-color="#c91e77"/><stop offset="0.66" stop-color="#e44171"/><stop offset="1" stop-color="#f0516f"/></linearGradient></defs><circle class="cls-1" cx="83.63" cy="83.63" r="76.69"/><path class="cls-2" d="M98.85,93.69a13.19,13.19,0,0,0,0-18.89L62.31,39.13a13.2,13.2,0,0,0-22.42,9.44v71.35a13.2,13.2,0,0,0,22.42,9.44L77.05,115"/><path class="cls-2" d="M92.87,52.13l13.31-13a13.2,13.2,0,0,1,22.42,9.44v71.35a13.2,13.2,0,0,1-22.42,9.44L69.64,93.69a13.19,13.19,0,0,1,0-18.89"/></svg>